# xmcd CD database file
#
# Track frame offsets:
#	150
#	14795
#	27457
#	39442
#	61672
#	77517
#	93380
#	104480
#	132887
#	146635
#
# Disc length: 2113 seconds
#
# Revision: 0
# Processed by: cddbd v1.4PL0 Copyright (c) Steve Scherf et al.
# Submitted via: CDex 1.40Beta9
#
DISCID=81083f0a
DTITLE=Various Artist - Down Home Blues
DYEAR=1900
DGENRE=Blues
TTITLE0=John Mayall - Why Worry
TTITLE1=Big Maybelle - I Cried For You
TTITLE2=Gatemouth Moore - Did You Ever Love A Woman
TTITLE3=B. B. King - The Thrill Is Gone
TTITLE4=Lightnin' Hopkins - Coffee For Mama
TTITLE5=Eddie "Clean Head" Vinson - Old Maid's Boogie
TTITLE6=Joe Williams - Sinking Blues
TTITLE7=Ray Charles - I Got A Woman
TTITLE8=Lena Horne - Nobody Knows The Trouble I've Seen
TTITLE9=John Lee Hooker - Whiskey And Wimmen
EXTD=ID3G: 0
EXTT0=
EXTT1=
EXTT2=
EXTT3=
EXTT4=
EXTT5=
EXTT6=
EXTT7=
EXTT8=
EXTT9=
PLAYORDER=
